# xmcd
#
# Track frame offsets:
#	150
#	17887
#	34232
#	51085
#	68800
#	83297
#	101127
#	117682
#	132655
#	148447
#	164090
#	179015
#	194807
#	212037
#	228950
#
# Disc length: 3233 seconds
#
# Revision: 2
# Processed by: cddbd v1.5.1PL2 Copyright (c) Steve Scherf et al.
# Submitted via: audiograbber 1.83.01
#
DISCID=ef0c9f0f
DTITLE=Music Maestro - MM6264
DYEAR=1900
DGENRE=Karaoke
TTITLE0=Jackson, Alan - Gone Crazy
TTITLE1=Strait, George - Meanwhile
TTITLE2=Hill, Faith - Love Ain't Like That
TTITLE3=Brooks and Dunn - I Can't Get Over You
TTITLE4=Gill, Vince - Don't Come Crying To Me
TTITLE5=Tritt, Travis - No More Looking Over My Shoulder
TTITLE6=McCann, Lila - With You
TTITLE7=McAnally, Shane - Say Anything
TTITLE8=Keith, Toby - If A Man Answers
TTITLE9=Tippin, Aaron - I'm Leaving
TTITLE10=McCoy, Neal - I Was
TTITLE11=Blackhawk - Your Own Little Corner Of My Heart
TTITLE12=Clark, Terri - Everytime I Cry
TTITLE13=Raye, Collin - Anyone Else
TTITLE14=Carter, Deana - You Still Shake Me
EXTD=As Listed In KJ Pro
EXTT0=
EXTT1=
EXTT2=
EXTT3=
EXTT4=
EXTT5=
EXTT6=
EXTT7=
EXTT8=
EXTT9=
EXTT10=
EXTT11=
EXTT12=
EXTT13=
EXTT14=
PLAYORDER=
